<?xml version="1.0" encoding="UTF-8" standalone="no"?>
<svg xmlns:dc="http://purl.org/dc/elements/1.1/" xmlns:cc="http://creativecommons.org/ns#" xmlns:rdf="http://www.w3.org/1999/02/22-rdf-syntax-ns#" xmlns:svg="http://www.w3.org/2000/svg" xmlns="http://www.w3.org/2000/svg" xmlns:xlink="http://www.w3.org/1999/xlink" xml:space="preserve" enable-background="new -7 0 233.25 46" viewBox="-7 0 500 86.814346" height="86.814346" width="500" y="0px" x="0px" id="Vrstva_1" version="1.1"><metadata id="metadata4963"><rdf:RDF><cc:Work rdf:about=""><dc:format>image/svg+xml</dc:format><dc:type rdf:resource="http://purl.org/dc/dcmitype/StillImage"/><dc:title/></cc:Work></rdf:RDF></metadata>
<path style="fill:#990ae3;stroke-width:2.17858291" id="path4874" d="m 50.20087,64.59498 c 11.256737,-6.531391 19.308779,-14.727219 23.021084,-23.456801 1.527187,-6.280854 2.400798,-13.043175 2.400798,-20.182391 0,-0.997791 -0.04575,-1.95201 -0.13725,-2.862657 C 74.829748,28.650543 61.185284,41.924648 43.133547,50.601943 21.358612,61.061319 5.0214198,63.876048 -2.2659396,55.895899 c 2.5315132,4.999848 5.921388,10.047624 9.7774796,14.57254 8.96269,7.967078 23.742195,5.113134 42.68933,-5.873459 z"/><path style="fill:#990ae3;stroke-width:2.17858291" id="path4878" d="M 40.591141,43.116332 C 61.132998,33.210316 75.437573,19.112707 72.943095,9.768766 68.84736,2.697086 60.560031,0 51.673592,0 25.330169,0 -7,17.365484 -7,39.519492 c 0,2.845229 0.6274318,6.034675 1.7537591,9.365728 6.0085314,7.975791 24.3783419,4.583738 45.8373819,-5.768888 z"/><path style="fill:#990ae3;stroke-width:2.17858291" id="path4882" d="m 38.859168,74.516246 v 0 c -14.444004,5.858209 -22.713904,3.988985 -27.284571,0.339859 l -0.06536,-0.05664 c 7.073861,7.054248 15.134617,12.014881 22.20194,12.014881 12.380886,0 29.33026,-15.012614 37.349623,-38.301664 -4.518381,8.404972 -14.217431,18.733633 -32.201632,26.003564 z"/><path d="m 38.859168,74.516246 v 0 C 56.843369,67.246315 66.542419,56.917654 71.062978,48.508325 71.879947,46.135848 72.605415,43.67405 73.224133,41.136001 69.509649,49.865582 61.457607,58.06141 50.203048,64.592802 31.255914,75.579395 16.476408,78.435517 7.51154,70.466261 c 1.287542,1.5054 2.625192,2.962872 3.999878,4.328844 l 0.06536,0.05664 c 4.568489,3.653483 12.838389,5.522707 27.282393,-0.335502 z" id="path4886" style="fill:#ffffff;stroke-width:2.17858291"/><path d="M 43.131369,50.601943 C 61.183106,41.926826 74.82757,28.650543 75.483323,18.093131 75.160893,14.818721 74.272031,12.062813 72.940917,9.770944 75.437573,19.114886 61.132998,33.212495 40.588962,43.118511 19.127743,53.471136 0.7601119,56.86319 -5.2484194,48.88522 c 0.7712183,2.287512 1.7777235,4.646917 2.9781226,7.010679 7.2917166,7.980149 23.6289088,5.16542 45.4016658,-5.293956 z" id="path4888" style="fill:#ffffff;stroke-width:2.17858291"/><path d="m 94.367279,32.391169 c -1.121971,0 -2.246119,-0.840933 -3.368089,-2.522799 -0.734183,-1.16772 -1.100185,-2.050046 -1.100185,-2.657871 0,-1.037005 0.681897,-1.995581 2.041332,-2.882265 1.359436,-0.882326 2.838694,-1.326756 4.435595,-1.326756 h 26.493748 c 1.68404,0 2.52497,0.775575 2.52497,2.331083 0,1.771188 -0.47493,3.392054 -1.42261,4.856061 -0.95204,1.470544 -1.98687,2.202547 -3.10884,2.202547 h -8.61847 v 29.277974 c 0,1.773367 -0.47711,3.392054 -1.42479,4.860419 -0.95204,1.470543 -1.98687,2.19819 -3.10884,2.19819 -1.12197,0 -2.24612,-0.834398 -3.36809,-2.522799 -0.73418,-1.161185 -1.10019,-2.050047 -1.10019,-2.655693 V 32.391169 Z" id="path4928" style="fill:#990ae3;stroke-width:2.17858291"/><path d="m 127.46867,55.192217 c 0.47493,2.030439 1.51193,3.664376 3.10883,4.897454 1.5969,1.224363 3.52059,1.840902 5.76453,1.840902 1.90191,0 4.16763,-0.647039 6.80372,-1.943295 1.20911,-0.603468 2.33108,-0.904112 3.36809,-0.904112 1.38122,0 2.07183,0.625253 2.07183,1.875759 0,1.128506 -0.24836,2.204726 -0.7429,3.239553 -0.49889,1.037005 -1.13504,1.790795 -1.91279,2.270083 -1.46619,0.901934 -3.09795,1.603437 -4.89092,2.104511 -1.79298,0.496717 -3.57506,0.747254 -5.34407,0.747254 -3.11101,0 -5.94971,-0.823504 -8.52043,-2.463977 -2.56855,-1.642651 -4.56631,-3.762412 -5.99111,-6.352747 -1.42479,-2.588157 -2.13719,-5.352778 -2.13719,-8.287329 0,-3.285303 0.77776,-6.254711 2.33327,-8.910404 1.55333,-2.655692 3.58377,-4.705739 6.08696,-6.152318 2.50537,-1.446579 5.2482,-2.169868 8.2285,-2.169868 2.89316,0 5.49221,0.681896 7.80587,2.041332 2.30929,1.359436 4.0892,3.165481 5.34406,5.407242 1.25268,2.246119 1.87794,4.703561 1.87794,7.389753 0,1.381222 -0.35729,2.618657 -1.06969,3.72102 -0.71239,1.100184 -1.50104,1.649187 -2.36376,1.649187 z m 8.03243,-13.08239 c -2.07401,0 -3.8452,0.592575 -5.31138,1.779902 -1.46837,1.191685 -2.37466,2.771158 -2.72323,4.762382 h 15.28929 c -0.0871,-1.856152 -0.82132,-3.41166 -2.20255,-4.662167 -1.3834,-1.252685 -3.06744,-1.880117 -5.05213,-1.880117 z" id="path4930" style="fill:#990ae3;stroke-width:2.17858291"/><path d="m 162.70724,68.72993 c -1.94329,0 -3.62734,-0.764682 -5.05213,-2.296226 -1.42479,-1.531544 -2.13719,-3.337589 -2.13719,-5.409421 V 26.628818 c 0,-0.949862 0.65793,-1.856153 1.97597,-2.72105 1.31587,-0.862719 2.72977,-1.294078 4.24388,-1.294078 1.5969,0 2.39644,0.734182 2.39644,2.200368 v 33.428175 c 0,0.562074 0.11983,1.028291 0.35729,1.394293 0.23747,0.366002 0.65793,0.679718 1.26358,0.938969 0.69061,0.305001 1.037,0.90629 1.037,1.812581 0,1.594722 -0.43135,3.056551 -1.29407,4.374594 -0.87144,1.311507 -1.79951,1.96726 -2.79077,1.96726 z" id="path4932" style="fill:#990ae3;stroke-width:2.17858291"/><path d="m 175.79181,31.4217 c -1.12415,0 -2.28969,-0.882326 -3.49663,-2.655692 -0.82132,-1.250507 -1.23089,-2.224333 -1.23089,-2.917123 0,-1.07622 0.732,-2.093618 2.20036,-3.04348 1.46837,-0.949862 3.04566,-1.424793 4.72971,-1.424793 1.81258,0 2.72105,0.821326 2.72105,2.463977 0,1.294078 -0.24836,2.53587 -0.74508,3.725377 -0.49671,1.187327 -1.12197,2.126296 -1.87794,2.816907 -0.76032,0.690611 -1.525,1.034827 -2.30058,1.034827 z m 0,37.30823 c -0.99561,0 -2.07401,-0.812611 -3.24173,-2.461798 -0.69061,-1.117613 -1.03483,-1.960725 -1.03483,-2.522799 V 39.582671 c 0,-0.949862 0.65793,-1.856152 1.97598,-2.72105 1.31586,-0.862719 2.72976,-1.294078 4.2417,-1.294078 1.5969,0 2.39862,0.734183 2.39862,2.204726 v 24.158304 c 0,1.165542 -0.22875,2.291869 -0.6819,3.370268 -0.45314,1.080577 -1.01304,1.92151 -1.68187,2.527156 -0.671,0.603467 -1.32893,0.901933 -1.97597,0.901933 z" id="path4934" style="fill:#990ae3;stroke-width:2.17858291"/><path d="m 200.9893,68.72993 c -3.11102,0 -5.92792,-0.771218 -8.45508,-2.326726 -2.52498,-1.555508 -4.49224,-3.594662 -5.89525,-6.121818 -1.403,-2.527156 -2.10451,-5.280884 -2.10451,-8.261186 0,-3.193802 0.79954,-6.106567 2.39862,-8.744831 1.5969,-2.633907 3.66874,-4.675239 6.21768,-6.121818 2.54676,-1.446579 5.2896,-2.169868 8.22851,-2.169868 2.50319,0 4.9432,0.690611 7.31785,2.071832 1.51194,-0.993434 3.02388,-1.490151 4.53581,-1.490151 1.59691,0 2.39862,0.734183 2.39862,2.204726 v 24.158305 c 0,1.165542 -0.23093,2.291869 -0.68189,3.370267 -0.45315,1.080577 -1.01304,1.92151 -1.68405,2.527156 -0.66882,0.603468 -1.32675,0.901934 -1.97379,0.901934 -0.99344,0 -2.07184,-0.812612 -3.23956,-2.461799 -0.43136,-0.686253 -0.73636,-1.291899 -0.90411,-1.812581 -0.34639,0.952041 -0.81043,1.771188 -1.39429,2.466156 -0.58386,0.690611 -1.19822,1.141577 -1.84526,1.361614 -0.91283,0.302823 -1.88447,0.448788 -2.9193,0.448788 z m 0.5795,-8.028077 c 1.94548,0 3.75806,-0.540289 5.44428,-1.618687 V 44.377732 c -1.59908,-0.908469 -3.38987,-1.359436 -5.37674,-1.359436 -2.4618,0 -4.52274,0.832219 -6.185,2.494478 -1.66226,1.662258 -2.49448,3.749341 -2.49448,6.250354 0,2.501013 0.83004,4.622952 2.49448,6.34839 1.66226,1.727616 3.69923,2.590335 6.11746,2.590335 z" id="path4936" style="fill:#990ae3;stroke-width:2.17858291"/><path d="m 262.46237,33.82032 c -0.43136,0 -0.95204,-0.150323 -1.55333,-0.453146 -2.63609,-1.337649 -5.18285,-2.010831 -7.64465,-2.010831 -2.72105,0 -5.15235,0.649217 -7.28736,1.945474 -2.13719,1.296257 -3.78202,3.036944 -4.92577,5.215527 -1.14376,2.180762 -1.71673,4.588096 -1.71673,7.224181 0,2.7668 0.61219,5.235134 1.84744,7.415896 1.2309,2.180761 2.86048,3.862627 4.89092,5.052133 2.02826,1.18297 4.27438,1.777724 6.73618,1.777724 2.84959,0 5.65778,-0.625254 8.42022,-1.87576 1.46837,-0.649218 2.65569,-0.96947 3.56416,-0.96947 1.55551,0 2.33109,0.751611 2.33109,2.265727 0,1.12197 -0.23747,2.233047 -0.7124,3.331053 -0.47929,1.104541 -1.0784,1.980331 -1.81476,2.62737 -1.3834,1.165542 -3.22866,2.113226 -5.53796,2.851765 -2.30929,0.732004 -4.60988,1.104542 -6.89739,1.104542 -4.23299,0 -8.06729,-1.087113 -11.49856,-3.24391 -3.43345,-2.156797 -6.08914,-4.99549 -7.96708,-8.51608 -1.87794,-3.518411 -2.8169,-7.330931 -2.8169,-11.433203 0,-4.490059 1.11325,-8.59233 3.33541,-12.306814 2.22433,-3.714483 5.12838,-6.607641 8.71433,-8.681652 3.58159,-2.069654 7.42461,-3.108838 11.52906,-3.108838 4.49223,0 8.52697,1.124149 12.11292,3.370268 0.64921,0.387788 0.97164,1.037005 0.97164,1.943296 0,1.596901 -0.43353,3.078337 -1.29625,4.437773 -0.86272,1.3529 -1.7908,2.036975 -2.78423,2.036975 z" id="path4938" style="fill:#990ae3;stroke-width:2.17858291"/><path d="m 286.75357,34.985861 c 3.23737,0 6.16103,0.797362 8.77533,2.39862 2.60994,1.596901 4.63167,3.699234 6.05646,6.313533 1.42479,2.614299 2.13719,5.429028 2.13719,8.452901 0,3.285303 -0.78647,6.24164 -2.36594,8.873368 -1.5773,2.636085 -3.65131,4.67306 -6.21768,6.126175 -2.56855,1.442222 -5.36803,2.172047 -8.38754,2.172047 -3.23738,0 -6.16757,-0.803897 -8.77969,-2.400798 -2.61212,-1.596902 -4.63167,-3.703591 -6.05646,-6.317891 -1.42479,-2.61212 -2.13719,-5.426849 -2.13719,-8.452901 0,-3.278767 0.78865,-6.235104 2.36812,-8.873367 1.57729,-2.633907 3.64695,-4.675239 6.2155,-6.121818 2.56855,-1.446579 5.36802,-2.169869 8.3919,-2.169869 z m 0,26.297673 c 2.37247,0 4.37241,-0.871433 5.9911,-2.618656 1.61869,-1.751581 2.42912,-3.923628 2.42912,-6.513963 0,-2.590335 -0.81043,-4.762382 -2.42912,-6.507426 -1.61869,-1.751581 -3.61863,-2.623014 -5.9911,-2.623014 -2.37684,0 -4.3746,0.871433 -5.99328,2.623014 -1.61869,1.747223 -2.42695,3.917091 -2.42695,6.507426 0,2.590335 0.80826,4.764561 2.42695,6.513963 1.61868,1.747223 3.61644,2.618656 5.99328,2.618656 z" id="path4940" style="fill:#990ae3;stroke-width:2.17858291"/><path d="m 330.86769,68.72993 c -0.99779,0 -2.07837,-0.812611 -3.24173,-2.461798 -0.68843,-1.117613 -1.03701,-1.960725 -1.03701,-2.522799 V 47.166318 c 0,-0.954219 -0.27014,-1.725438 -0.80825,-2.333262 -0.54029,-0.603468 -1.22436,-0.908469 -2.04133,-0.908469 -1.98687,0 -4.32013,1.078398 -6.99543,3.241731 v 14.764255 c 0,1.165542 -0.22875,2.291869 -0.6819,3.370268 -0.45314,1.080577 -1.01086,1.92151 -1.67969,2.527156 -0.67318,0.603467 -1.32893,0.901933 -1.97815,0.901933 -0.99343,0 -2.07401,-0.812611 -3.23737,-2.461798 -0.69279,-1.117613 -1.03701,-1.960725 -1.03701,-2.522799 V 39.582671 c 0,-0.949862 0.65793,-1.856152 1.97598,-2.72105 1.31586,-0.862719 2.72976,-1.294078 4.2417,-1.294078 1.59472,0 2.39862,0.734183 2.39862,2.204726 v 1.294078 c 1.72326,-1.381222 3.35719,-2.407334 4.88874,-3.078338 1.53154,-0.668824 3.07833,-1.002148 4.63166,-1.002148 1.55333,0 3.01298,0.450967 4.37242,1.359436 1.35943,0.906291 2.4509,2.18294 3.27223,3.823413 3.88659,-3.455232 7.48997,-5.182849 10.81666,-5.182849 1.7298,0 3.27224,0.50761 4.63603,1.52283 1.35726,1.013041 2.41169,2.361584 3.17201,4.045628 0.75379,1.684045 1.13505,3.540197 1.13505,5.572815 v 15.803439 c 0,1.165542 -0.22875,2.291869 -0.6819,3.370268 -0.45097,1.080577 -1.01304,1.92151 -1.68187,2.527156 -0.67318,0.603467 -1.32675,0.901933 -1.97379,0.901933 -0.99344,0 -2.07619,-0.812611 -3.23955,-2.461798 -0.69062,-1.117613 -1.03701,-1.960725 -1.03701,-2.522799 V 47.166318 c 0,-0.954219 -0.27232,-1.725438 -0.81043,-2.333262 -0.54029,-0.603468 -1.22219,-0.908469 -2.04133,-0.908469 -1.98687,0 -4.32013,1.078398 -6.99543,3.241731 v 14.764255 c 0,1.165542 -0.22658,2.291869 -0.6819,3.370268 -0.45315,1.080577 -1.01086,1.92151 -1.67969,2.527156 -0.67754,0.603467 -1.33329,0.901933 -1.98033,0.901933 z" id="path4942" style="fill:#990ae3;stroke-width:2.17858291"/><path d="m 362.86889,80.779672 c -0.99343,0 -2.07619,-0.821326 -3.24173,-2.461799 -0.68843,-1.12197 -1.03483,-1.965082 -1.03483,-2.518442 v -36.21676 c 0,-0.949862 0.65576,-1.856152 1.97162,-2.72105 1.31804,-0.862719 2.73195,-1.294078 4.2417,-1.294078 1.46837,0 2.27009,0.647039 2.4008,1.943296 2.50319,-1.684045 5.13928,-2.524978 7.90172,-2.524978 2.80819,0 5.33317,0.755969 7.57929,2.265727 2.24612,1.511936 3.97374,3.531482 5.18285,6.05646 1.20911,2.529334 1.81258,5.304849 1.81258,8.324365 0,3.368089 -0.7124,6.385426 -2.13719,9.036761 -1.42261,2.657871 -3.32234,4.70356 -5.69699,6.152318 -2.37902,1.442222 -4.98678,2.169868 -7.84072,2.169868 -1.12197,0 -2.29841,-0.137251 -3.53149,-0.418288 -1.22654,-0.281037 -2.31801,-0.657932 -3.26787,-1.135041 v 6.546641 c 0,1.161185 -0.22657,2.287512 -0.6819,3.363732 -0.44878,1.07622 -1.01304,1.92151 -1.68186,2.524977 -0.67536,0.607825 -1.3333,0.906291 -1.97598,0.906291 z M 373.6812,43.018296 c -1.16336,0 -2.32019,0.21568 -3.46613,0.647039 -1.14157,0.429181 -2.14808,1.058791 -3.0108,1.87576 v 13.801322 c 1.90191,1.07622 3.93017,1.616508 6.08914,1.616508 2.24176,0 4.13495,-0.862718 5.6665,-2.594692 1.53154,-1.723259 2.30276,-3.85827 2.30276,-6.405033 0,-2.590335 -0.7124,-4.731882 -2.13719,-6.415926 -1.42697,-1.684045 -3.24173,-2.524978 -5.44428,-2.524978 z" id="path4944" style="fill:#990ae3;stroke-width:2.17858291"/><path d="m 409.43828,68.72993 c -3.11102,0 -5.92575,-0.771218 -8.4529,-2.326726 -2.5228,-1.555508 -4.49224,-3.594662 -5.89525,-6.121818 -1.40518,-2.527156 -2.10451,-5.280884 -2.10451,-8.261186 0,-3.193802 0.79736,-6.106567 2.39862,-8.744831 1.59472,-2.633907 3.66873,-4.675239 6.21768,-6.121818 2.54458,-1.446579 5.28742,-2.169868 8.22415,-2.169868 2.50319,0 4.9432,0.690611 7.31786,2.071832 1.50975,-0.993434 3.02169,-1.490151 4.53363,-1.490151 1.5969,0 2.39862,0.734183 2.39862,2.204726 v 24.158305 c 0,1.165542 -0.22658,2.291869 -0.6819,3.370267 -0.45315,1.080577 -1.01522,1.92151 -1.68404,2.527156 -0.67101,0.603468 -1.32676,0.901934 -1.97162,0.901934 -0.99561,0 -2.07619,-0.812612 -3.23955,-2.461799 -0.43136,-0.686253 -0.73637,-1.291899 -0.9063,-1.812581 -0.34857,0.952041 -0.80825,1.771188 -1.39647,2.466156 -0.58168,0.690611 -1.19604,1.141577 -1.84308,1.361614 -0.90629,0.302823 -1.87794,0.448788 -2.91494,0.448788 z m 0.58386,-8.028077 c 1.94329,0 3.75805,-0.540289 5.4421,-1.618687 V 44.377732 c -1.59908,-0.908469 -3.39205,-1.359436 -5.37674,-1.359436 -2.4618,0 -4.52274,0.832219 -6.18936,2.494478 -1.66226,1.662258 -2.4923,3.749341 -2.4923,6.250354 0,2.501013 0.83004,4.622952 2.4923,6.34839 1.66662,1.727616 3.70577,2.590335 6.124,2.590335 z" id="path4946" style="fill:#990ae3;stroke-width:2.17858291"/><path d="m 455.23645,68.72993 c -0.99344,0 -2.07401,-0.812611 -3.23738,-2.461798 -0.69279,-1.117613 -1.037,-1.960725 -1.037,-2.522799 v -16.3873 c 0,-1.037005 -0.35729,-1.884474 -1.06751,-2.555478 -0.7124,-0.673182 -1.63394,-1.008683 -2.75808,-1.008683 -2.37248,0 -5.41814,1.276649 -9.13045,3.823412 v 14.313289 c 0,1.165542 -0.22657,2.291869 -0.68189,3.370268 -0.45315,1.080577 -1.01304,1.92151 -1.67969,2.527156 -0.671,0.603467 -1.32893,0.901933 -1.9738,0.901933 -0.99561,0 -2.07618,-0.812611 -3.2439,-2.461798 -0.68626,-1.117613 -1.03483,-1.960725 -1.03483,-2.522799 V 39.582671 c 0,-0.949862 0.66011,-1.856152 1.97597,-2.72105 1.31587,-0.862719 2.72977,-1.294078 4.2417,-1.294078 1.5969,0 2.39862,0.734183 2.39862,2.204726 v 1.553329 c 3.92799,-2.893158 7.70783,-4.339737 11.33299,-4.339737 1.94765,0 3.70359,0.516325 5.27871,1.55333 1.58165,1.037005 2.79948,2.39862 3.66219,4.080486 0.86272,1.686223 1.29626,3.520589 1.29626,5.507457 v 15.803439 c 0,1.165542 -0.22657,2.291869 -0.68189,3.370268 -0.45097,1.080577 -1.01087,1.92151 -1.68405,2.527156 -0.671,0.603467 -1.32676,0.901933 -1.97597,0.901933 z" id="path4948" style="fill:#990ae3;stroke-width:2.17858291"/><path d="m 462.87674,41.075 c -0.38779,-0.777754 -0.58169,-1.361614 -0.58169,-1.749402 0,-0.90629 0.62308,-1.760295 1.87794,-2.559834 1.25269,-0.79954 2.58816,-1.198221 4.01513,-1.198221 1.04136,0 1.7298,0.409574 2.07619,1.228721 l 7.77318,16.3873 6.60547,-14.444004 c 0.38778,-0.864898 1.16554,-1.609973 2.33108,-2.233048 1.16336,-0.625253 2.37466,-0.941148 3.62516,-0.941148 1.59908,0 2.4008,0.734183 2.4008,2.204726 0,1.12197 -0.23747,2.222155 -0.7124,3.302732 l -16.97334,36.595833 c -0.47493,0.95422 -1.02611,1.708009 -1.65136,2.270084 -0.62743,0.559895 -1.24179,0.840933 -1.84962,0.840933 -0.95204,0 -2.00429,-0.771219 -3.17201,-2.331084 -0.64704,-0.991255 -0.96947,-1.836545 -0.96947,-2.524977 0,-0.257073 0.10893,-0.647039 0.32243,-1.161185 l 5.63381,-12.178278 z" id="path4950" style="fill:#990ae3;stroke-width:2.17858291"/>
</svg>